<svg xmlns="http://www.w3.org/2000/svg" width="12" height="12" viewBox="0 0 24 24">
    <path d="M15.816 15.31a.59.59 0 0 0 .868 0l1.636-1.734a.678.678 0 0 0 0-.92.59.59 0 0 0-.867 0l-.59.625V9.65c0-.359-.274-.65-.613-.65-.339 0-.614.291-.614.65v3.63l-.588-.623a.59.59 0 0 0-.868 0 .678.678 0 0 0 0 .92l1.636 1.733Zm-8.5-6.12a.59.59 0 0 1 .868 0l1.636 1.734c.24.254.24.665 0 .92a.59.59 0 0 1-.868 0l-.588-.625v3.631c0 .36-.275.65-.614.65-.339 0-.614-.29-.614-.65v-3.63l-.588.623a.59.59 0 0 1-.868 0 .678.678 0 0 1 0-.92L7.316 9.19Z"/>
    <path d="M21 5.75v12.5A2.75 2.75 0 0 1 18.25 21H5.75A2.75 2.75 0 0 1 3 18.25V5.75A2.75 2.75 0 0 1 5.75 3h12.5A2.75 2.75 0 0 1 21 5.75Zm-1.5 12.5V5.75c0-.69-.56-1.25-1.25-1.25h-5.5v15h5.5c.69 0 1.25-.56 1.25-1.25Zm-8.25 1.25v-15h-5.5c-.69 0-1.25.56-1.25 1.25v12.5c0 .69.56 1.25 1.25 1.25h5.5Z"/>
</svg>