<svg xmlns="http://www.w3.org/2000/svg" width="12" height="12" viewBox="0 0 24 24">
<path d="M5 10.75a6.25 6.25 0 0 1 6.25-6.25h8.234c-.28 6.396-4.13 10.945-8.604 11.041a8.237 8.237 0 0 1-2.884-.454.75.75 0 0 0-.492 1.418 9.737 9.737 0 0 0 3.41.536C16.714 16.916 21 10.963 21 3.75a.75.75 0 0 0-.75-.75h-9a7.75 7.75 0 0 0-7.23 10.55c-.742 1.687-1.061 3.502-1.046 5.203v1.497a.75.75 0 0 0 1.5 0v-1.507c-.024-2.596.828-5.41 2.842-7.425 2.196-2.196 5.02-3.054 7.82-2.82a.75.75 0 0 0 .125-1.495c-3.2-.267-6.47.718-9.006 3.254-.445.446-.84.922-1.188 1.422a6.307 6.307 0 0 1-.068-.93Z"></path>
</svg>