<?xml version="1.0" standalone="no"?>
<svg version="1.0" xmlns="http://www.w3.org/2000/svg"
 width="96.000000pt" height="96.000000pt" viewBox="0 0 96.000000 96.000000"
 preserveAspectRatio="xMidYMid meet">

<g transform="translate(0.000000,96.000000) scale(0.100000,-0.100000)"
fill="#254b1c" stroke="none">
<path d="M386 864 c-70 -22 -149 -103 -170 -174 -22 -73 -20 -123 8 -202 30
-84 77 -169 157 -281 66 -93 89 -113 115 -99 24 14 127 156 177 245 114 204
114 331 3 443 -80 79 -178 102 -290 68z m181 -209 c74 -56 89 -83 53 -92 -16
-4 -20 -15 -22 -62 l-3 -56 -35 0 -35 0 -3 58 -3 57 -39 0 -39 0 -3 -57 -3
-58 -35 0 -35 0 -3 56 c-2 47 -6 58 -22 62 -11 3 -20 12 -20 21 0 17 137 126
159 126 8 0 47 -25 88 -55z"/>
</g>
</svg>
