<svg xmlns="http://www.w3.org/2000/svg" width="12" height="12" viewBox="0 0 24 24">
    <path d="M3 5.75A2.75 2.75 0 0 1 5.75 3h12.5A2.75 2.75 0 0 1 21 5.75v12.5A2.75 2.75 0 0 1 18.25 21H5.75A2.75 2.75 0 0 1 3 18.25V5.75ZM5.75 4.5c-.69 0-1.25.56-1.25 1.25v12.5c0 .69.56 1.25 1.25 1.25h12.5c.69 0 1.25-.56 1.25-1.25V5.75c0-.69-.56-1.25-1.25-1.25H5.75ZM7.5 8.56v1.19a.75.75 0 0 1-1.5 0v-3A.75.75 0 0 1 6.75 6h2.99a.75.75 0 0 1 0 1.5H8.56l2.47 2.47a.75.75 0 0 1-1.06 1.06L7.5 8.56Zm9 5.69v1.19l-2.47-2.47a.75.75 0 1 0-1.06 1.06l2.47 2.47h-1.18a.75.75 0 0 0 0 1.5h2.99a.75.75 0 0 0 .75-.75v-3a.75.75 0 1 0-1.5 0Z"/>
</svg>